<svg xmlns="http://www.w3.org/2000/svg" viewBox="0 0 750 500"><g id="freepik--Floor--inject-28"><path d="M171.46,455.14c3.2,1.07,372.2,0,372.2,0s-92,22.52-124.68,22.49C405.05,477.61,171.46,455.14,171.46,455.14Z" style="fill:#D7D04B"></path><path d="M171.46,455.14c3.2,1.07,372.2,0,372.2,0s-92,22.52-124.68,22.49C405.05,477.61,171.46,455.14,171.46,455.14Z" style="fill:#fff;opacity:0.8"></path><path d="M735.6,446.76c0,.15-161.46.26-360.58.26s-360.62-.11-360.62-.26,161.43-.26,360.62-.26S735.6,446.62,735.6,446.76Z" style="fill:#263238"></path></g><g id="freepik--Sky--inject-28"><polygon points="399.37 343.07 399 343.04 398.92 343.07 399.37 343.07" style="fill:none"></polygon><polygon points="398 343.04 398 343.07 398 343.07 398.12 342.99 398.03 342.99 398.01 343.01 398.02 342.99 397.98 342.99 397.96 343.07 398 343.04" style="fill:none"></polygon><polygon points="397.3 343.53 397.34 343.53 397.33 343.51 397.3 343.53" style="fill:none"></polygon><polygon points="398.83 343.07 398.88 343.03 398.31 342.99 398.27 342.99 398.21 343.07 398.83 343.07" style="fill:none"></polygon><path d="M397.62,341.53l25.16-178,.39.06,18-153H350.29l21.2,153.13.74-.11Z" style="fill:#D7D04B"></path><path d="M661.73,10.58H551.36L472.56,178.1l.4.19L398.05,342.92h0Z" style="fill:#D7D04B"></path><polygon points="398.03 342.99 398.02 342.99 398.01 343.01 398.03 342.99" style="fill:#fff"></polygon><polygon points="398.92 343.07 399 343.04 398.88 343.03 398.83 343.07 398.21 343.07 398.27 342.99 398.12 342.99 398 343.07 398 343.07 398 343.04 397.96 343.07 397.98 342.99 397.82 342.99 397.83 343.07 397.62 343.23 397.55 343.07 397.4 343.07 397.43 342.82 397.15 342.19 397.26 343 397.32 343.07 397.27 343.07 397.28 343.09 396.91 342.86 397.09 343.07 396.49 343.07 10.07 117.86 10.07 230.81 223.74 292.56 223.74 292.55 396.26 343.07 395.58 343.07 397.07 343.5 397.3 343.53 397.33 343.51 397.34 343.53 397.46 343.5 397.44 343.47 397.46 343.5 397.5 343.49 397.49 343.52 397.53 343.57 397.65 343.67 397.74 343.6 397.72 343.65 397.8 343.63 397.8 343.62 397.81 343.63 397.91 343.6 397.92 343.64 397.99 343.57 398.03 343.58 397.92 343.66 398.62 343.96 398.05 343.59 398.05 343.57 397.99 343.57 398.01 343.57 397.93 343.52 397.96 343.36 398.75 343.12 398.1 343.54 399.64 343.09 399.37 343.07 398.92 343.07" style="fill:#D7D04B"></polygon><polygon points="734.82 138.18 399.26 342.81 399.84 342.75 734.82 226.27 734.82 138.18" style="fill:#D7D04B"></polygon><polygon points="397.25 343.56 397.22 343.57 397.26 343.56 397.26 343.56 397.29 343.54 397.21 343.54 397.25 343.56" style="fill:#fff"></polygon><polygon points="398.46 342.77 398.25 342.9 398.35 342.89 398.46 342.77" style="fill:#fff"></polygon><polygon points="398.13 342.09 397.8 342.82 397.82 342.95 397.99 342.93 398.13 342.09" style="fill:#fff"></polygon><path d="M278.77,206.33l0,0L397.18,342.91,322.09,178.38l.06,0L231.46,10.58H120.35Z" style="fill:#D7D04B"></path><path d="M397.62,341.53l25.16-178,.39.06,18-153H350.29l21.2,153.13.74-.11Z" style="fill:#fff;opacity:0.8"></path><path d="M661.73,10.58H551.36L472.56,178.1l.4.19L398.05,342.92h0Z" style="fill:#fff;opacity:0.8"></path><polygon points="398.92 343.07 399 343.04 398.88 343.03 398.83 343.07 398.21 343.07 398.27 342.99 398.12 342.99 398 343.07 398 343.07 398 343.04 397.96 343.07 397.98 342.99 397.82 342.99 397.83 343.07 397.62 343.23 397.55 343.07 397.4 343.07 397.43 342.82 397.15 342.19 397.26 343 397.32 343.07 397.27 343.07 397.28 343.09 396.91 342.86 397.09 343.07 396.49 343.07 10.07 117.86 10.07 230.81 223.74 292.56 223.74 292.55 396.26 343.07 395.58 343.07 397.07 343.5 397.3 343.53 397.33 343.51 397.34 343.53 397.46 343.5 397.44 343.47 397.46 343.5 397.5 343.49 397.49 343.52 397.53 343.57 397.65 343.67 397.74 343.6 397.72 343.65 397.8 343.63 397.8 343.62 397.81 343.63 397.91 343.6 397.92 343.64 397.99 343.57 398.03 343.58 397.92 343.66 398.62 343.96 398.05 343.59 398.05 343.57 397.99 343.57 398.01 343.57 397.93 343.52 397.96 343.36 398.75 343.12 398.1 343.54 399.64 343.09 399.37 343.07 398.92 343.07" style="fill:#fff;opacity:0.8"></polygon><polygon points="734.82 138.18 399.26 342.81 399.84 342.75 734.82 226.27 734.82 138.18" style="fill:#fff;opacity:0.8"></polygon><path d="M278.77,206.33l0,0L397.18,342.91,322.09,178.38l.06,0L231.46,10.58H120.35Z" style="fill:#fff;opacity:0.8"></path><polygon points="397.87 343.97 397.87 343.95 397.84 343.94 397.87 343.97" style="fill:#fff"></polygon><polygon points="397.44 343.61 397.42 343.66 397.35 343.62 397.37 343.75 397.39 343.74 397.38 343.75 397.5 343.72 397.44 343.68 397.48 343.63 397.51 343.63 397.5 343.6 397.53 343.57 397.35 343.57 397.44 343.61" style="fill:#fff"></polygon><polygon points="397.28 343.57 396.57 343.99 397.3 343.78 397.32 343.6 397.28 343.57" style="fill:#fff"></polygon><polygon points="397.91 343.66 397.86 343.69 397.9 343.74 397.91 343.66" style="fill:#fff"></polygon><polygon points="397.44 344.26 397.64 345.62 397.82 344.31 397.62 343.87 397.44 344.26" style="fill:#fff"></polygon><polygon points="397.82 343.72 397.85 343.73 397.84 343.71 397.82 343.72" style="fill:#fff"></polygon><polygon points="397.07 343.5 10.07 299.08 10.07 371.06 31.71 371.06 397.21 343.54 397.29 343.54 397.34 343.53 397.3 343.53 397.07 343.5" style="fill:#D7D04B"></polygon><polygon points="397.07 343.5 10.07 299.08 10.07 371.06 31.71 371.06 397.21 343.54 397.29 343.54 397.34 343.53 397.3 343.53 397.07 343.5" style="fill:#fff;opacity:0.8"></polygon><polygon points="398.35 342.89 398.25 342.9 398.08 342.92 398.05 342.93 397.99 342.93 397.82 342.95 397.45 342.98 397.82 342.99 397.98 342.99 398.02 342.99 398.03 342.99 398.12 342.99 398.27 342.99 398.31 342.99 398.88 343.03 399 343.04 399.37 343.07 399.64 343.09 734.82 367.04 734.82 309.44 399.84 342.75 399.26 342.81 398.35 342.89" style="fill:#D7D04B"></polygon><polygon points="398.35 342.89 398.25 342.9 398.08 342.92 398.05 342.93 397.99 342.93 397.82 342.95 397.45 342.98 397.82 342.99 397.98 342.99 398.02 342.99 398.03 342.99 398.12 342.99 398.27 342.99 398.31 342.99 398.88 343.03 399 343.04 399.37 343.07 399.64 343.09 734.82 367.04 734.82 309.44 399.84 342.75 399.26 342.81 398.35 342.89" style="fill:#fff;opacity:0.8"></polygon><path d="M72.41,268.64c12.49,4.15,256.77,5.69,256.77,5.69l94.78-7L64.13,247.61Z" style="fill:#fff"></path><path d="M466.67,348l-2.13-6.35a87.37,87.37,0,0,0-157.61-12.35l-4.14,8.25a87.12,87.12,0,0,0-7.3,35H470.17A87.28,87.28,0,0,0,466.67,348Z" style="fill:#D7D04B"></path><path d="M466.67,348l-2.13-6.35a87.37,87.37,0,0,0-157.61-12.35l-4.14,8.25a87.12,87.12,0,0,0-7.3,35H470.17A87.28,87.28,0,0,0,466.67,348Z" style="fill:#fff;opacity:0.4"></path><path d="M456.6,350.74l-68.85.16s6.29-2.1,21.37-4.12c3.84-.51,26.39-1.18,45.59-1.68a77.56,77.56,0,0,0-139.92-11l65.79,3-69.47,4.32a77.19,77.19,0,0,0-6.49,31.07H459.71A77.66,77.66,0,0,0,456.6,350.74Z" style="fill:#D7D04B"></path><path d="M456.6,350.74l-68.85.16s6.29-2.1,21.37-4.12c3.84-.51,26.39-1.18,45.59-1.68a77.56,77.56,0,0,0-139.92-11l65.79,3-69.47,4.32c-4.17,9.51-5.48,20.22-6.49,31.07H459.71A77.66,77.66,0,0,0,456.6,350.74Z" style="fill:#fff;opacity:0.7000000000000001"></path><path d="M279.05,274.78a2.07,2.07,0,0,1-.44-.35l-1.21-1.07c-1-.93-2.55-2.27-4.48-3.85a79.54,79.54,0,0,0-7.05-5.16,45.28,45.28,0,0,0-9.52-4.77,58.55,58.55,0,0,0-19.14-2.76,47.47,47.47,0,0,0-5.87.47c-1.38.21-2.14.37-2.15.32a2.57,2.57,0,0,1,.54-.17c.36-.08.88-.24,1.57-.35a38.55,38.55,0,0,1,5.9-.63,55.55,55.55,0,0,1,19.31,2.63,44,44,0,0,1,9.62,4.86,72,72,0,0,1,7,5.28c1.91,1.62,3.38,3,4.38,4l1.14,1.14A2.45,2.45,0,0,1,279.05,274.78Z" style="fill:#fff"></path><path d="M397.91,215.75l97.95,4.83,14-18.5C475.41,207.35,397.91,215.75,397.91,215.75Z" style="fill:#fff"></path><path d="M317.75,152.08c-4.8-13.07-45,6.08-45,6.08S259.16,98,229.92,111.7c-8.22,3.84-12.5,8.33-17.37,12.8L257,181.14c75.34-2.67,227.07-5.08,230-5.08C490.74,176.06,322.55,165.14,317.75,152.08Z" style="fill:#fff"></path><polygon points="573.98 123.4 376.32 124.77 281.54 117.72 594.09 98.05 573.98 123.4" style="fill:#fff"></polygon><path d="M454.71,345.1a4.22,4.22,0,0,1-.18-.41c-.12-.3-.29-.71-.49-1.23s-.46-1.22-.8-2L452,338.81c-.48-1-1.1-2.06-1.72-3.24s-1.44-2.4-2.26-3.73a81.85,81.85,0,0,0-6.43-8.46,84.76,84.76,0,0,0-21.19-17.61,69.67,69.67,0,0,0-15-6.4,77.91,77.91,0,0,0-8.4-2,79.74,79.74,0,0,0-8.83-1,77.13,77.13,0,0,0-17.47.92A79.31,79.31,0,0,0,355,301.55a86.68,86.68,0,0,0-23.75,14,93.27,93.27,0,0,0-13.11,13.25c-1.37,1.74-2.42,3.09-3.09,4l-.78,1.06c-.18.24-.29.36-.29.36s.08-.14.24-.39l.75-1.09c.64-1,1.66-2.35,3-4.1a90.46,90.46,0,0,1,13-13.41,86.39,86.39,0,0,1,23.81-14.14,79.74,79.74,0,0,1,15.83-4.31,80.65,80.65,0,0,1,8.64-1,83.57,83.57,0,0,1,8.95,0,78.47,78.47,0,0,1,8.89,1,76,76,0,0,1,8.45,2,68.77,68.77,0,0,1,15.07,6.48,84.45,84.45,0,0,1,21.23,17.78,80,80,0,0,1,6.39,8.54c.81,1.34,1.59,2.59,2.24,3.77s1.21,2.27,1.68,3.27.84,1.91,1.19,2.69.55,1.47.76,2,.33.95.44,1.25S454.71,345.1,454.71,345.1Z" style="fill:#fff"></path><path d="M367.07,286.29l-.29.08-.85.19c-.76.18-1.88.35-3.3.72A87.77,87.77,0,0,0,350.8,291c-2.45.94-5.06,2.13-7.82,3.5a90,90,0,0,0-8.48,4.94A84.32,84.32,0,0,0,305,332.71a93.19,93.19,0,0,0-3.88,9c-1,2.91-1.88,5.64-2.52,8.18a89,89,0,0,0-2.23,12.2c-.19,1.45-.23,2.59-.32,3.36,0,.36-.06.64-.08.87a1,1,0,0,1-.05.3,1.13,1.13,0,0,1,0-.3c0-.23,0-.52,0-.88.05-.77.06-1.92.22-3.37a80.29,80.29,0,0,1,2.08-12.27c.61-2.55,1.46-5.31,2.47-8.23a88,88,0,0,1,3.85-9.09A83.64,83.64,0,0,1,334.23,299a88.6,88.6,0,0,1,8.56-4.93c2.77-1.36,5.41-2.53,7.87-3.45a81.33,81.33,0,0,1,11.92-3.55c1.43-.34,2.57-.48,3.33-.62l.86-.14A1.14,1.14,0,0,1,367.07,286.29Z" style="fill:#D7D04B"></path><path d="M57.14,304.48c0-.14,50.44,5.53,112.6,12.67s112.57,13,112.55,13.18-50.42-5.53-112.61-12.67S57.13,304.63,57.14,304.48Z" style="fill:#D7D04B"></path><path d="M336.73,273.51c0,.14-28.3.26-63.21.26s-63.21-.12-63.21-.26,28.3-.26,63.21-.26S336.73,273.37,336.73,273.51Z" style="fill:#D7D04B"></path><path d="M495.86,220.58c0,.15-21.54-.39-48.08-1.2s-48.08-1.57-48.08-1.72,21.53.4,48.09,1.2S495.86,220.44,495.86,220.58Z" style="fill:#D7D04B"></path><path d="M487.88,176.05l-.59,0-1.75,0-6.73.07c-5.85,0-14.3.16-24.75.35-20.9.37-49.76,1.24-81.63,2.32s-60.74,1.89-81.64,2.16c-10.45.15-18.91.21-24.75.19l-6.73,0-1.75,0c-.4,0-.6,0-.6,0l.6,0,1.75,0L266,181c5.85,0,14.3-.16,24.75-.35,20.9-.37,49.76-1.24,81.64-2.32s60.73-1.89,81.63-2.17C464.5,176,473,176,478.81,176l6.73,0,1.75,0Z" style="fill:#D7D04B"></path><path d="M572.24,123.4l-144.91,1.42c-20,.08-39.08,0-56.41-.35-8.67-.22-16.91-.37-24.62-.67l-11.15-.4-10.28-.47c-6.55-.27-12.47-.67-17.67-1s-9.67-.6-13.33-.87l-8.42-.62-2.19-.17c-.49,0-.75-.08-.75-.08l.75,0,2.19.13,8.43.52c3.66.23,8.14.53,13.34.78s11.12.63,17.67.88l10.28.43,11.15.38c7.7.28,15.94.42,24.6.62,17.34.29,36.4.39,56.41.31s39.06-.31,56.4-.49l46.06-.42c13.11-.06,23.72-.1,31.06-.07l8.44,0,2.2,0Z" style="fill:#D7D04B"></path><path d="M599.82,321.74c0,.15-31.28,3.58-69.88,7.67S460,336.69,460,336.55s31.26-3.57,69.88-7.66S599.8,321.6,599.82,321.74Z" style="fill:#D7D04B"></path><path d="M469.26,302.09c.06.12-5.48,3.13-12.39,6.72s-12.56,6.38-12.63,6.25,5.48-3.13,12.39-6.72S469.19,302,469.26,302.09Z" style="fill:#D7D04B"></path><path d="M428.48,276.13a72.58,72.58,0,0,1-3.47,8,74.45,74.45,0,0,1-3.94,7.77,72.22,72.22,0,0,1,3.47-8A73.62,73.62,0,0,1,428.48,276.13Z" style="fill:#D7D04B"></path></g><g id="freepik--Sea--inject-28"><path d="M250.26,395.45c8.79-.14,23,.34,24.05,0l-26.93,18.65,292.7,6.34-10.2-6.25a570.67,570.67,0,0,0,65.34-3.6,163.15,163.15,0,0,0-17.2-3.34c-102-.93-262.08-2.93-297.29-6.53L500.09,396l-40.25-24.65H304.76l-20.05,14.73c-16.22,1.27-44,2.15-59.81,5.76C220.49,393.57,236.38,395.66,250.26,395.45Z" style="fill:#D7D04B"></path><path d="M254,424.21l140,7.87s-41.41,3.05-86.78,2.58c-3.81,0-39.32-1.71-83.93-3.86l-22.44,15.53H582.27l-36.1-22.12Z" style="fill:#D7D04B"></path><g style="opacity:0.8"><path d="M250.26,395.45c8.79-.14,23,.34,24.05,0l-26.93,18.65,292.7,6.34-10.2-6.25a570.67,570.67,0,0,0,65.34-3.6,163.15,163.15,0,0,0-17.2-3.34c-102-.93-262.08-2.93-297.29-6.53L500.09,396l-40.25-24.65H304.76l-20.05,14.73c-16.22,1.27-44,2.15-59.81,5.76C220.49,393.57,236.38,395.66,250.26,395.45Z" style="fill:#fff"></path></g><g style="opacity:0.8"><path d="M254,424.21l140,7.87s-41.41,3.05-86.78,2.58c-3.81,0-39.32-1.71-83.93-3.86l-22.44,15.53H582.27l-36.1-22.12Z" style="fill:#fff"></path></g><path d="M297.68,377.36l5.37-5,157.45,0,10.8,6.93-61.38,1.45s43.43.66,39.46,1.67S379.29,387,379.29,387s27.56,4.88,24.44,4.89-63-2.27-58.79-4.77,49.52-3.9,49.52-3.9l-63.71,0,66.13-3.76Z" style="fill:#D7D04B;fill-rule:evenodd"></path><path d="M297.68,377.36l5.37-5,157.45,0,10.8,6.93-61.38,1.45s43.43.66,39.46,1.67S379.29,387,379.29,387s27.56,4.88,24.44,4.89-63-2.27-58.79-4.77,49.52-3.9,49.52-3.9l-63.71,0,66.13-3.76Z" style="fill:#fff;fill-rule:evenodd;opacity:0.4"></path><path d="M436.09,374.41c0,.14-22.5.26-50.25.26s-50.25-.12-50.25-.26,22.49-.26,50.25-.26S436.09,374.27,436.09,374.41Z" style="fill:#fff"></path><path d="M408.69,377.2c0,.15-9.59.27-21.41.27s-21.4-.12-21.4-.27,9.58-.26,21.4-.26S408.69,377.06,408.69,377.2Z" style="fill:#fff"></path><path d="M386,389a15.7,15.7,0,0,1-5.69,0,15.7,15.7,0,0,1,5.69,0Z" style="fill:#fff"></path><path d="M391.26,408.56a30.59,30.59,0,0,1-8,0,30.59,30.59,0,0,1,8,0Z" style="fill:#fff"></path><path d="M411,411.72c0,.14-4.75.26-10.62.26s-10.62-.12-10.62-.26a106.23,106.23,0,0,1,10.62-.26A106.23,106.23,0,0,1,411,411.72Z" style="fill:#fff"></path><path d="M427.3,430a122.13,122.13,0,0,1-15.93,0,122.13,122.13,0,0,1,15.93,0Z" style="fill:#fff"></path><path d="M419.72,432.56a89.84,89.84,0,0,1-13.66,0,89.84,89.84,0,0,1,13.66,0Z" style="fill:#fff"></path><path d="M739.89,372.33c0,.14-163.38.26-364.87.26s-364.91-.12-364.91-.26,163.34-.26,364.91-.26S739.89,372.19,739.89,372.33Z" style="fill:#263238"></path></g><g id="freepik--Birds--inject-28"><path d="M368.53,312.76c0,.08-1.19.56-3.09,1.46a54.32,54.32,0,0,0-7.12,4.07l-.07,0-.21.14-.15-.19a72.89,72.89,0,0,0-5.29-6.21c-1.43-1.52-2.36-2.42-2.31-2.47s.29.16.74.54,1.08.94,1.83,1.67a53.84,53.84,0,0,1,5.45,6.15l-.36-.06.08,0a42.8,42.8,0,0,1,7.26-4c1-.42,1.78-.71,2.34-.9A3.34,3.34,0,0,1,368.53,312.76Z" style="fill:#263238"></path><path d="M451.41,274.9a4.26,4.26,0,0,1-.72.84c-.48.51-1.19,1.24-2.07,2.14-1.77,1.79-4.23,4.23-7,6.91l-.09.1-.19.18-.18-.18c-2.67-2.72-5.07-5.19-6.78-7-.86-.9-1.54-1.64-2-2.16a3.86,3.86,0,0,1-.68-.84,5.19,5.19,0,0,1,.83.7c.51.47,1.23,1.17,2.12,2,1.78,1.74,4.22,4.17,6.89,6.88h-.37l.1-.1c2.75-2.68,5.25-5.08,7.08-6.81.92-.86,1.67-1.55,2.19-2A4.56,4.56,0,0,1,451.41,274.9Z" style="fill:#263238"></path><path d="M466,287.94a25.44,25.44,0,0,0-6,4.05l-.46.46-.17.18-.18-.16a46,46,0,0,1-4.87-4.56,46.29,46.29,0,0,1,5.21,4.17l-.36,0,.46-.48a15.81,15.81,0,0,1,4.28-3A6,6,0,0,1,466,287.94Z" style="fill:#263238"></path><path d="M531,274.68c0,.08-1.38.53-3.59,1.39a64,64,0,0,0-8.37,4l-.58.33-.19.11-.14-.16a62.76,62.76,0,0,0-6.33-6.13c-1.72-1.45-2.84-2.27-2.79-2.33a3.32,3.32,0,0,1,.85.49c.52.34,1.27.87,2.16,1.56a49.9,49.9,0,0,1,6.5,6.07l-.32-.05.58-.34a50.8,50.8,0,0,1,8.5-3.88c1.13-.39,2.06-.67,2.7-.84A4.18,4.18,0,0,1,531,274.68Z" style="fill:#263238"></path><path d="M563.61,294.69c0,.08-.92.53-2.35,1.42a26.27,26.27,0,0,0-5.12,4.11h0l-.17.18-.19-.16c-2-1.7-3.71-3.25-5-4.4a13.62,13.62,0,0,1-2-1.94,16.22,16.22,0,0,1,2.2,1.66c1.31,1.08,3.1,2.59,5.07,4.28l-.36,0h0a22.89,22.89,0,0,1,5.31-4.07A9.35,9.35,0,0,1,563.61,294.69Z" style="fill:#263238"></path><path d="M519.74,305.37c0,.08-1.41.58-3.58,1.71a33.62,33.62,0,0,0-7.72,5.58l-.18.18-.19-.18-.16-.17c-2.71-2.69-5.14-5.16-6.89-7-.87-.9-1.57-1.63-2-2.15s-.73-.81-.7-.84a5.47,5.47,0,0,1,.84.7c.52.47,1.26,1.16,2.16,2,1.81,1.74,4.28,4.16,7,6.85l.17.17h-.36a29.8,29.8,0,0,1,7.92-5.53,25.79,25.79,0,0,1,2.7-1.11A4.12,4.12,0,0,1,519.74,305.37Z" style="fill:#263238"></path></g><g id="freepik--Clouds--inject-28"><path d="M548.28,189.12H632.2l-24-5.15s-11.65-15.05-17.92-15.46c-16.25-1.06-15.75,10.87-15.75,10.87C566.36,175.35,557.47,180.42,548.28,189.12Z" style="fill:#D7D04B"></path><path d="M548.28,189.12H632.2l-24-5.15s-11.65-15.05-17.92-15.46c-16.25-1.06-15.75,10.87-15.75,10.87C566.36,175.35,557.47,180.42,548.28,189.12Z" style="fill:#fff;opacity:0.5"></path><path d="M79.5,85.12h83.92l-24-5.15s-11.66-15-17.92-15.45C105.2,63.45,105.7,75.39,105.7,75.39,97.57,71.36,88.69,76.43,79.5,85.12Z" style="fill:#D7D04B"></path><path d="M79.5,85.12h83.92l-24-5.15s-11.66-15-17.92-15.45C105.2,63.45,105.7,75.39,105.7,75.39,97.57,71.36,88.69,76.43,79.5,85.12Z" style="fill:#fff;opacity:0.5"></path></g></svg>
